<svg width="32" height="32" xmlns="http://www.w3.org/2000/svg"><path d="M14.239 7.001l.205.001c3.97.148 6.696 7.645 6.55 11.372-.002.056-.237.2-.32.121l-2.022-1.35a.21.21 0 00-.208-.017l-.852.46c-.463-1.446-1.818-2.523-3.463-2.584-2.087-.077-3.842 1.506-3.922 3.537-.08 2.031 1.547 3.74 3.634 3.818.056.002.112.001.168 0a5.823 5.823 0 002.283 2.265 7.136 7.136 0 01-2.553.371c-3.86-.143-6.88-3.315-6.734-7.074.146-3.727 3.464-11.066 7.439-10.919zm-.054 11.133c.024-.118.168-.172.272-.104l1.6 1.058c.052.034.12.04.176.013l2.093-.952a.184.184 0 01.178.014l1.76 1.183c.054.036.124.04.182.012l1.674-.818a.185.185 0 01.168.004l1.343.737a.183.183 0 00.141.014l.988-.3c.112-.035.227.043.229.155l.01.56c.034 2.887-2.407 5.259-5.439 5.29-3.034.031-5.527-2.29-5.56-5.177a8.268 8.268 0 01.185-1.689z" fill="#363636" fill-rule="evenodd"/></svg>