<svg width="32" height="32" xmlns="http://www.w3.org/2000/svg"><path d="M19 23.224c0 .427-.363.776-.807.776h-4.386c-.444 0-.807-.35-.807-.776v-8.882c0-.093.07-.164.163-.19.422-.12.816-.176 1.365-.143 1.133.069 1.586 1.021 2.596 1.021.61 0 1.226-.3 1.551-.54.133-.099.325-.008.325.153v8.58zM17.753 9c.297 0 .505.09.594.388l1.52 4.353c.007.015.024.063.043.119.052.148.082 1.025.086 1.181l.003.103.001 8.304c0 .825-.607 1.552-1.878 1.552h-4.575a1.55 1.55 0 01-1.541-1.552L12 15.206v-.204c.005-.22.037-1.05.066-1.13l.049-.132 1.576-4.352c.105-.323.378-.388.723-.388zm.62-2c.345 0 .627.21.627.467v.066c0 .257-.282.467-.627.467h-3.747C14.282 8 14 7.79 14 7.533v-.066c0-.257.282-.467.626-.467z" fill="#363636" fill-rule="evenodd"/></svg>