<svg xmlns="http://www.w3.org/2000/svg" width="53" height="53"><path d="M21.1 25.04c-.77.6-7.4 6.13-5.08 11.4a.45.45 0 01-.24.59.46.46 0 01-.6-.23c-1.04-2.36-.67-4.98 1.1-7.78a20.5 20.5 0 014.24-4.67.46.46 0 01.64.07.44.44 0 01-.07.63m.87-3.2c-2.33-.67-7.5 5.37-8.36 8.6-1.23 4.73-.8 8.08 3.1 9.2s6.65-1.3 8.04-6c1.17-3.93-.48-11.15-2.77-11.8m8.58 18.42a.46.46 0 01-.63-.12c-1.78-2.64-.64-7.33-.4-8.24a.46.46 0 01.56-.32c.24.06.4.3.32.55-.63 2.34-.94 5.7.27 7.5a.45.45 0 01-.13.62m7.93-3.3c-1.4-3.86-7.03-8.74-9.3-7.94-2.28.8-2.87 8.7-1.62 11.8 1.83 4.54 4.18 7 8 5.65s4.6-4.92 2.92-9.5m-11.36-26.5l.1-.3a.46.46 0 01.57-.29c.24.07.37.32.3.56l-.1.3c-.67 2.1-1.3 4.1.12 7.53a.45.45 0 01-.25.59.46.46 0 01-.59-.24c-1.55-3.73-.8-6.08-.14-8.15M32.62 25c3.86-1.2 4.8-4.72 3.33-9.38-1.24-3.9-6.66-9.02-8.94-8.32-2.3.7-3.24 8.57-2.12 11.73 1.63 4.6 3.88 7.17 7.74 5.97" fill="#3e2723" fill-rule="evenodd"/></svg>