<svg width="32" height="32" xmlns="http://www.w3.org/2000/svg"><path d="M22.565 15.519c-.778.68-1.84.744-2.373.143-.532-.602-.333-1.64.445-2.32.778-.68 1.84-.744 2.372-.143.532.601.333 1.64-.444 2.32m-5.038 4.216c-1.011.481-2.136.237-2.512-.544-.377-.782.138-1.805 1.149-2.286 1.011-.48 2.136-.237 2.513.544.376.782-.139 1.805-1.15 2.286m-6.36 2.293c-1.04.042-1.91-.574-1.944-1.378-.033-.804.783-1.491 1.823-1.534 1.04-.042 1.91.574 1.944 1.378.033.804-.782 1.49-1.822 1.534m9.53-11.925c1.328-.302 2.428.114 3.194.578.17.103.57.228.787.37.114.076.225.086.205.215.075.024.118.109.116.379-.002.164-.098.695-.09.798.076 1.038-.329 2.606-1.516 3.689-.974.888-2.096 1.393-3.04 1.456-.16 1.041-.982 2.375-2.443 3.137-1.052.549-2.294.612-3.177.522-.475.796-1.512 1.443-2.98 1.664-1.624.246-3.037-.022-3.79-.76-.27-.266-.85-.773-.957-.982-.08-.156.513-.821.767-1.206.562-.85 1.345-1.562 2.865-1.792.955-.144 1.861-.075 2.6.155.432-.759 1.107-1.676 2.139-2.214.99-.517 2.125-.573 2.979-.523.051-.481.231-1.006.528-1.527-.054-.022-.109-.043-.16-.068-.569.716-1.763 1.37-3.191 1.323-1.028-.035-1.991-.515-2.617-.96-.7.398-1.76.444-2.961-.014-1.33-.506-2.278-1.309-2.526-2.186-.089-.314-.307-.943-.298-1.146.008-.15.74-.4 1.098-.581.789-.401 1.685-.604 2.93-.13.78.297 1.433.735 1.89 1.222.652-.387 1.556-.79 2.565-.757.967.033 1.847.474 2.468.874.49-.679 1.443-1.27 2.616-1.536zm-9.869 9.485c-.432.054-.864.282-1.088.734-.063.125.065.16.15.155.11-.005.302-.061.363-.185.076-.152.199-.343.363-.363.117-.015.297-.055.363-.185.062-.123-.064-.167-.151-.156zm5.096-2.086c-.322.164-.581.434-.644.807-.03.175.492.068.52-.098.034-.204.14-.435.33-.532.06-.031.212-.112.138-.199-.066-.078-.276-.013-.344.022zM20.6 13.94a1.088 1.088 0 00-.39.899c.007.143.542.024.533-.17a.84.84 0 01.285-.682c.087-.074.05-.15-.051-.167a.516.516 0 00-.377.12z" fill="#363636" fill-rule="evenodd"/></svg>