<svg width="32" height="32" xmlns="http://www.w3.org/2000/svg"><path d="M17.06 16.025c.45-.553 1.289-.733 1.695-.789a.203.203 0 01.235.191c.023.38.043 1.184-.412 1.74-.412.504-1.274.684-1.673.744v.978c0-.103.078-.203.154-.296.452-.553 1.29-.733 1.696-.79a.204.204 0 01.235.192c.023.38.043 1.184-.412 1.74-.412.504-1.274.684-1.673.744v2.334c0 .094-.158.187-.256.187h-.179c-.098 0-.364-.093-.364-.187v-2.336c0 .007.039.01.01.005-.418-.057-1.266-.234-1.685-.748-.454-.555-.445-1.359-.423-1.739.008-.12.133-.208.257-.191.407.056 1.176.236 1.628.789a.86.86 0 01.213.54v-1.224c0 .007.039.01.01.005-.418-.057-1.266-.234-1.685-.747-.454-.556-.445-1.36-.423-1.74.008-.12.133-.208.257-.19.407.055 1.176.235 1.628.788a.86.86 0 01.213.54V15.34c0 .007.039.009.01.005-.418-.056-1.266-.234-1.685-.747-.454-.556-.445-1.36-.423-1.74.008-.12.133-.208.257-.191.407.056 1.176.236 1.628.789.135.165.213.35.213.54v-.817c-.4-.336-.654-.916-.651-1.482.003-.707.558-1.345.822-1.63a.25.25 0 01.34-.003c.281.286.887.939.884 1.641-.003.62-.197 1.183-.596 1.499v.548c0-.103.078-.203.154-.296.452-.553 1.29-.733 1.696-.789a.203.203 0 01.235.191c.023.38.043 1.184-.412 1.74-.412.504-1.274.684-1.673.744v.978c0-.103.078-.203.154-.296m5.51-6.57l.547-1.255c.055-.542-.383-.827-.82-.713l-1.04.542s-2.845-.97-5.143-1.027c-2.298-.057-4.705 1.141-4.705 1.141l-1.095-.456c-.492-.114-.766.257-.656.685l.602 1.14S9 13.962 9 16.872c0 2.205.602 5.42.93 6.446l-.52 1.256c-.054.399.055.627.52.57l1.15-.285S14.47 26 16.331 26c1.86 0 4.924-.913 4.924-.913l1.149.342c.383.057.63 0 .602-.513l-.219-1.426c.383-.913 1.095-3.594 1.204-6.124.133-3.088-1.423-7.91-1.423-7.91" fill="#363636" fill-rule="evenodd"/></svg>